<svg width="22" height="23" viewBox="0 0 22 23" fill="none" xmlns="http://www.w3.org/2000/svg">
<path d="M1.5 10C0.671573 10 0 10.6716 0 11.5C0 12.3284 0.671573 13 1.5 13V10ZM21.0607 12.5607C21.6464 11.9749 21.6464 11.0251 21.0607 10.4393L11.5147 0.893398C10.9289 0.307612 9.97918 0.307612 9.3934 0.893398C8.80761 1.47918 8.80761 2.42893 9.3934 3.01472L17.8787 11.5L9.3934 19.9853C8.80761 20.5711 8.80761 21.5208 9.3934 22.1066C9.97918 22.6924 10.9289 22.6924 11.5147 22.1066L21.0607 12.5607ZM1.5 13H20V10H1.5V13Z" fill="white"/>
</svg>
