<svg width="1018" height="4" viewBox="0 0 1018 4" fill="none" xmlns="http://www.w3.org/2000/svg">
<path d="M1016 3.5C1016.83 3.5 1017.5 2.82843 1017.5 2C1017.5 1.17157 1016.83 0.5 1016 0.5V3.5ZM0 3.5H2.98824V0.5H0V3.5ZM8.96471 3.5H14.9412V0.5H8.96471V3.5ZM20.9176 3.5H26.8941V0.5H20.9176V3.5ZM32.8706 3.5H38.8471V0.5H32.8706V3.5ZM44.8235 3.5H50.8V0.5H44.8235V3.5ZM56.7765 3.5H62.7529V0.5H56.7765V3.5ZM68.7294 3.5H74.7059V0.5H68.7294V3.5ZM80.6824 3.5H86.6588V0.5H80.6824V3.5ZM92.6353 3.5H98.6118V0.5H92.6353V3.5ZM104.588 3.5H110.565V0.5H104.588V3.5ZM116.541 3.5H122.518V0.5H116.541V3.5ZM128.494 3.5H134.471V0.5H128.494V3.5ZM140.447 3.5H146.424V0.5H140.447V3.5ZM152.4 3.5H158.376V0.5H152.4V3.5ZM164.353 3.5H170.329V0.5H164.353V3.5ZM176.306 3.5H182.282V0.5H176.306V3.5ZM188.259 3.5H194.235V0.5H188.259V3.5ZM200.212 3.5H206.188V0.5H200.212V3.5ZM212.165 3.5H218.141V0.5H212.165V3.5ZM224.118 3.5H230.094V0.5H224.118V3.5ZM236.071 3.5H242.047V0.5H236.071V3.5ZM248.024 3.5H254V0.5H248.024V3.5ZM259.976 3.5H265.953V0.5H259.976V3.5ZM271.929 3.5H277.906V0.5H271.929V3.5ZM283.882 3.5H289.859V0.5H283.882V3.5ZM295.835 3.5H301.812V0.5H295.835V3.5ZM307.788 3.5H313.765V0.5H307.788V3.5ZM319.741 3.5H325.718V0.5H319.741V3.5ZM331.694 3.5H337.671V0.5H331.694V3.5ZM343.647 3.5H349.624V0.5H343.647V3.5ZM355.6 3.5H361.576V0.5H355.6V3.5ZM367.553 3.5H373.529V0.5H367.553V3.5ZM379.506 3.5H385.482V0.5H379.506V3.5ZM391.459 3.5H397.435V0.5H391.459V3.5ZM403.412 3.5H409.388V0.5H403.412V3.5ZM415.365 3.5H421.341V0.5H415.365V3.5ZM427.318 3.5H433.294V0.5H427.318V3.5ZM439.271 3.5H445.247V0.5H439.271V3.5ZM451.224 3.5H457.2V0.5H451.224V3.5ZM463.177 3.5H469.153V0.5H463.177V3.5ZM475.129 3.5H481.106V0.5H475.129V3.5ZM487.082 3.5H493.059V0.5H487.082V3.5ZM499.035 3.5H505.012V0.5H499.035V3.5ZM510.988 3.5H516.965V0.5H510.988V3.5ZM522.941 3.5H528.918V0.5H522.941V3.5ZM534.894 3.5H540.871V0.5H534.894V3.5ZM546.847 3.5H552.823V0.5H546.847V3.5ZM558.8 3.5H564.776V0.5H558.8V3.5ZM570.753 3.5H576.729V0.5H570.753V3.5ZM582.706 3.5H588.682V0.5H582.706V3.5ZM594.658 3.5H600.635V0.5H594.658V3.5ZM606.611 3.5H612.588V0.5H606.611V3.5ZM618.564 3.5H624.541V0.5H618.564V3.5ZM630.517 3.5H636.494V0.5H630.517V3.5ZM642.47 3.5H648.446V0.5H642.47V3.5ZM654.423 3.5H660.399V0.5H654.423V3.5ZM666.376 3.5H672.352V0.5H666.376V3.5ZM678.329 3.5H684.305V0.5H678.329V3.5ZM690.282 3.5H696.258V0.5H690.282V3.5ZM702.234 3.5H708.211V0.5H702.234V3.5ZM714.187 3.5H720.164V0.5H714.187V3.5ZM726.14 3.5H732.117V0.5H726.14V3.5ZM738.093 3.5H744.069V0.5H738.093V3.5ZM750.046 3.5H756.022V0.5H750.046V3.5ZM761.999 3.5H767.975V0.5H761.999V3.5ZM773.952 3.5H779.928V0.5H773.952V3.5ZM785.905 3.5H791.881V0.5H785.905V3.5ZM797.857 3.5H803.834V0.5H797.857V3.5ZM809.81 3.5H815.787V0.5H809.81V3.5ZM821.763 3.5H827.74V0.5H821.763V3.5ZM833.716 3.5H839.693V0.5H833.716V3.5ZM845.669 3.5H851.645V0.5H845.669V3.5ZM857.622 3.5H863.598V0.5H857.622V3.5ZM869.575 3.5H875.551V0.5H869.575V3.5ZM881.528 3.5H887.504V0.5H881.528V3.5ZM893.48 3.5H899.457V0.5H893.48V3.5ZM905.433 3.5H911.41V0.5H905.433V3.5ZM917.386 3.5H923.363V0.5H917.386V3.5ZM929.339 3.5H935.316V0.5H929.339V3.5ZM941.292 3.5H947.268V0.5H941.292V3.5ZM953.245 3.5H959.221V0.5H953.245V3.5ZM965.198 3.5H971.174V0.5H965.198V3.5ZM977.151 3.5H983.127V0.5H977.151V3.5ZM989.104 3.5H995.08V0.5H989.104V3.5ZM1001.06 3.5H1007.03V0.5H1001.06V3.5ZM1013.01 3.5H1016V0.5H1013.01V3.5Z" fill="#FFCB75"/>
</svg>
