<svg width="1019" height="4" viewBox="0 0 1019 4" fill="none" xmlns="http://www.w3.org/2000/svg">
<path d="M1017 3.5C1017.83 3.5 1018.5 2.82843 1018.5 2C1018.5 1.17157 1017.83 0.5 1017 0.5V3.5ZM0 3.5H2.99118V0.5H0V3.5ZM8.97353 3.5H14.9559V0.5H8.97353V3.5ZM20.9382 3.5H26.9206V0.5H20.9382V3.5ZM32.9029 3.5H38.8853V0.5H32.9029V3.5ZM44.8676 3.5H50.85V0.5H44.8676V3.5ZM56.8324 3.5H62.8147V0.5H56.8324V3.5ZM68.7971 3.5H74.7794V0.5H68.7971V3.5ZM80.7618 3.5H86.7441V0.5H80.7618V3.5ZM92.7265 3.5H98.7088V0.5H92.7265V3.5ZM104.691 3.5H110.674V0.5H104.691V3.5ZM116.656 3.5H122.638V0.5H116.656V3.5ZM128.621 3.5H134.603V0.5H128.621V3.5ZM140.585 3.5H146.568V0.5H140.585V3.5ZM152.55 3.5H158.532V0.5H152.55V3.5ZM164.515 3.5H170.497V0.5H164.515V3.5ZM176.479 3.5H182.462V0.5H176.479V3.5ZM188.444 3.5H194.426V0.5H188.444V3.5ZM200.409 3.5H206.391V0.5H200.409V3.5ZM212.373 3.5H218.356V0.5H212.373V3.5ZM224.338 3.5H230.32V0.5H224.338V3.5ZM236.303 3.5H242.285V0.5H236.303V3.5ZM248.267 3.5H254.25V0.5H248.267V3.5ZM260.232 3.5H266.215V0.5H260.232V3.5ZM272.197 3.5H278.179V0.5H272.197V3.5ZM284.162 3.5H290.144V0.5H284.162V3.5ZM296.126 3.5H302.109V0.5H296.126V3.5ZM308.091 3.5H314.073V0.5H308.091V3.5ZM320.056 3.5H326.038V0.5H320.056V3.5ZM332.021 3.5H338.003V0.5H332.021V3.5ZM343.985 3.5H349.968V0.5H343.985V3.5ZM355.95 3.5H361.932V0.5H355.95V3.5ZM367.915 3.5H373.897V0.5H367.915V3.5ZM379.879 3.5H385.862V0.5H379.879V3.5ZM391.844 3.5H397.827V0.5H391.844V3.5ZM403.809 3.5H409.791V0.5H403.809V3.5ZM415.774 3.5H421.756V0.5H415.774V3.5ZM427.738 3.5H433.721V0.5H427.738V3.5ZM439.703 3.5H445.685V0.5H439.703V3.5ZM451.668 3.5H457.65V0.5H451.668V3.5ZM463.632 3.5H469.615V0.5H463.632V3.5ZM475.597 3.5H481.58V0.5H475.597V3.5ZM487.562 3.5H493.544V0.5H487.562V3.5ZM499.527 3.5H505.509V0.5H499.527V3.5ZM511.491 3.5H517.474V0.5H511.491V3.5ZM523.456 3.5H529.438V0.5H523.456V3.5ZM535.421 3.5H541.403V0.5H535.421V3.5ZM547.385 3.5H553.368V0.5H547.385V3.5ZM559.35 3.5H565.333V0.5H559.35V3.5ZM571.315 3.5H577.297V0.5H571.315V3.5ZM583.28 3.5H589.262V0.5H583.28V3.5ZM595.244 3.5H601.227V0.5H595.244V3.5ZM607.209 3.5H613.191V0.5H607.209V3.5ZM619.174 3.5H625.156V0.5H619.174V3.5ZM631.139 3.5H637.121V0.5H631.139V3.5ZM643.103 3.5H649.086V0.5H643.103V3.5ZM655.068 3.5H661.05V0.5H655.068V3.5ZM667.033 3.5H673.015V0.5H667.033V3.5ZM678.997 3.5H684.98V0.5H678.997V3.5ZM690.962 3.5H696.945V0.5H690.962V3.5ZM702.927 3.5H708.909V0.5H702.927V3.5ZM714.892 3.5H720.874V0.5H714.892V3.5ZM726.856 3.5H732.839V0.5H726.856V3.5ZM738.821 3.5H744.803V0.5H738.821V3.5ZM750.786 3.5H756.768V0.5H750.786V3.5ZM762.75 3.5H768.733V0.5H762.75V3.5ZM774.715 3.5H780.698V0.5H774.715V3.5ZM786.68 3.5H792.662V0.5H786.68V3.5ZM798.645 3.5H804.627V0.5H798.645V3.5ZM810.609 3.5H816.592V0.5H810.609V3.5ZM822.574 3.5H828.556V0.5H822.574V3.5ZM834.539 3.5H840.521V0.5H834.539V3.5ZM846.504 3.5H852.486V0.5H846.504V3.5ZM858.468 3.5H864.451V0.5H858.468V3.5ZM870.433 3.5H876.415V0.5H870.433V3.5ZM882.398 3.5H888.38V0.5H882.398V3.5ZM894.362 3.5H900.345V0.5H894.362V3.5ZM906.327 3.5H912.31V0.5H906.327V3.5ZM918.292 3.5H924.274V0.5H918.292V3.5ZM930.257 3.5H936.239V0.5H930.257V3.5ZM942.221 3.5H948.204V0.5H942.221V3.5ZM954.186 3.5H960.168V0.5H954.186V3.5ZM966.151 3.5H972.133V0.5H966.151V3.5ZM978.115 3.5H984.098V0.5H978.115V3.5ZM990.08 3.5H996.063V0.5H990.08V3.5ZM1002.04 3.5H1008.03V0.5H1002.04V3.5ZM1014.01 3.5H1017V0.5H1014.01V3.5Z" fill="#FFCB75"/>
</svg>
